<?xml version="1.0" encoding="UTF-8" standalone="no"?><!DOCTYPE svg PUBLIC "-//W3C//DTD SVG 1.1//EN" "http://www.w3.org/Graphics/SVG/1.1/DTD/svg11.dtd"><svg width="100%" height="100%" viewBox="0 0 2906 850" version="1.1" xmlns="http://www.w3.org/2000/svg" xmlns:xlink="http://www.w3.org/1999/xlink" xml:space="preserve" style="fill-rule:evenodd;clip-rule:evenodd;stroke-miterlimit:10;"><rect id="Hero-Banner" x="0" y="0" width="1780" height="850" style="fill:none;"/><clipPath id="_clip1"><rect x="0" y="0" width="1780" height="850"/></clipPath><g clip-path="url(#_clip1)"><rect x="-32.714" y="-56.036" width="1881.63" height="976.763" style="fill:#c0c0c0;"/><g id="Layer1"><path d="M80.329,411.518l0,-286.02l1869.7,0l0,130.465l-1734.06,0l0,50.179l1483.31,124.444l0,300.069l-1926.95,0l0,-130.465l1765.02,4.558l0,-64.229l-1457.01,-129.001Z" style="fill:#9e9e9e;fill-opacity:0.415922;fill-rule:nonzero;"/><g id="semantic-icon"><g><g opacity="0.2"><path d="M996.819,77.027l-502.404,265.888l468.704,414.599l41.429,-676.468l281.037,414.6l-571.04,275.781l520.336,-477.361l-487.873,-188.904l-219.512,496.53" style="fill:none;stroke:#3f5d69;stroke-width:1.6px;"/><path d="M1285.59,495.646l-322.466,261.868l-248.574,13.913l-187.049,-169.735l-33.081,-258.777" style="fill:none;stroke:#3f5d69;stroke-width:1.6px;"/><g><circle cx="1285.59" cy="495.646" r="12.676" style="fill:#4f5764;"/><circle cx="963.119" cy="757.514" r="12.676" style="fill:#4f5764;"/><circle cx="714.545" cy="771.427" r="14.222" style="fill:#4f5764;"/><circle cx="494.415" cy="342.915" r="12.676" style="fill:#4f5764;"/><circle cx="527.496" cy="601.692" r="10.512" style="fill:#4f5764;"/><circle cx="1234.88" cy="294.066" r="12.058" style="fill:#4f5764;"/><circle cx="747.008" cy="105.162" r="14.84" style="fill:#4f5764;"/><circle cx="1004.55" cy="81.046" r="16.695" style="fill:#4f5764;"/></g></g></g><g><g opacity="0.372929"><path d="M625.813,461.019l0,-34.319l165.716,-73.892l0,34.937l-131.707,56.578l131.707,55.651l0,34.937l-165.716,-73.892Z" style="fill:url(#_Linear2);fill-rule:nonzero;"/><path d="M815.953,600.455l102.336,-313.809l34.318,0l-102.336,313.809l-34.318,0Z" style="fill:url(#_Linear3);fill-rule:nonzero;"/><path d="M979.814,534.911l0,-34.937l131.708,-55.651l-131.708,-56.578l0,-34.937l165.716,73.892l0,34.319l-165.716,73.892Z" style="fill:url(#_Linear4);fill-rule:nonzero;"/></g></g></g></g></g><rect id="screenshot" x="2606.08" y="0" width="300" height="225" style="fill:none;"/><clipPath id="_clip5"><rect x="2606.08" y="0" width="300" height="225"/></clipPath><g clip-path="url(#_clip5)"><rect x="2597.9" y="-2.619" width="314.249" height="232.8" style="fill:#c0c0c0;"/><g id="Layer11"><text x="2623.11px" y="180.565px" style="font-family:'Augmented';font-size:33.095px;">Semantique</text><path d="M2625.35,77.137l0,-51.474l238.773,0l0,23.479l-216.632,0l0,9.031l242.128,22.396l0,54.002l-264.269,0l0,-23.479l237.836,0.82l0,-11.559l-237.836,-23.216Z" style="fill-rule:nonzero;"/><g transform="matrix(1,0,0,1,2537.07,-327.396)"><text x="85.965px" y="523.848px" style="font-family:'Hero';font-size:9px;">F<tspan x="92.148px 95.811px 101.985px 112.227px 118.338px 126.96px 133.071px 136.734px 141.801px 148.002px " y="523.848px 523.848px 523.848px 523.848px 523.848px 523.848px 523.848px 523.848px 523.848px 523.848px ">rameworked</tspan></text><text x="159.237px" y="523.848px" style="font-family:'Hero';font-size:9px;"><tspan x="159.237px 164.412px 166.5px 172.224px 177.277px 182.821px 188.482px 194.44px 200.425px 206.158px 211.882px 215.527px 217.525px 223.186px 229.171px 234.223px 239.947px 245.932px 251.665px 256.718px 266.51px 272.171px 275.294px 281.045px 286.097px " y="523.848px 523.848px 523.848px 523.848px 523.848px 523.848px 523.848px 523.848px 523.848px 523.848px 523.848px 523.848px 523.848px 523.848px 523.848px 523.848px 523.848px 523.848px 523.848px 523.848px 523.848px 523.848px 523.848px 523.848px 523.848px ">via Foundation and more -</tspan></text><text x="294.614px" y="523.848px" style="font-family:'Hero';font-size:9px;">s<tspan x="299.789px 305.54px 315.512px 321.416px 327.491px 331.316px 333.494px 338.696px 344.6px 346.778px 349.046px " y="523.848px 523.848px 523.848px 523.848px 523.848px 523.848px 523.848px 523.848px 523.848px 523.848px 523.848px ">emantically</tspan></text><text x="354.437px" y="523.848px" style="font-family:'Hero';font-size:9px;">.</text></g></g></g><defs><linearGradient id="_Linear2" x1="0" y1="0" x2="1" y2="0" gradientUnits="userSpaceOnUse" gradientTransform="matrix(165.653,0,0,165.653,625.684,443.817)"><stop offset="0%" style="stop-color:#4f5764;stop-opacity:1"/><stop offset="66%" style="stop-color:#293942;stop-opacity:1"/><stop offset="100%" style="stop-color:#111c21;stop-opacity:1"/></linearGradient><linearGradient id="_Linear3" x1="0" y1="0" x2="1" y2="0" gradientUnits="userSpaceOnUse" gradientTransform="matrix(136.563,0,0,136.563,815.991,443.396)"><stop offset="0%" style="stop-color:#3d96d2;stop-opacity:1"/><stop offset="100%" style="stop-color:#069fb0;stop-opacity:1"/></linearGradient><linearGradient id="_Linear4" x1="0" y1="0" x2="1" y2="0" gradientUnits="userSpaceOnUse" gradientTransform="matrix(165.653,0,0,165.653,979.697,443.817)"><stop offset="0%" style="stop-color:#4f5764;stop-opacity:1"/><stop offset="66%" style="stop-color:#293942;stop-opacity:1"/><stop offset="100%" style="stop-color:#111c21;stop-opacity:1"/></linearGradient></defs></svg>