<?xml version="1.0" encoding="UTF-8" standalone="no"?><!DOCTYPE svg PUBLIC "-//W3C//DTD SVG 1.1//EN" "http://www.w3.org/Graphics/SVG/1.1/DTD/svg11.dtd"><svg width="100%" height="100%" viewBox="0 0 1780 850" version="1.1" xmlns="http://www.w3.org/2000/svg" xmlns:xlink="http://www.w3.org/1999/xlink" xml:space="preserve" style="fill-rule:evenodd;clip-rule:evenodd;stroke-miterlimit:10;"><rect id="hero-bg-semantic-lg" x="0" y="0" width="1780" height="850" style="fill:none;"/><clipPath id="_clip1"><rect x="0" y="0" width="1780" height="850"/></clipPath><g clip-path="url(#_clip1)"><rect x="-32.714" y="-56.036" width="1881.63" height="976.763" style="fill:#c0c0c0;"/><g id="Layer1"><path d="M80.329,411.518l0,-286.02l1869.7,0l0,130.465l-1734.06,0l0,50.179l1483.31,124.444l0,300.069l-1926.95,0l0,-130.465l1765.02,4.558l0,-64.229l-1457.01,-129.001Z" style="fill:#9e9e9e;fill-opacity:0.415922;fill-rule:nonzero;"/><g id="semantic-icon"><g><g opacity="0.2"><path d="M968.63,168.854l-369.825,195.722l345.019,305.191l30.496,-497.955l206.875,305.191l-420.349,203.006l383.025,-351.391l-359.129,-139.054l-161.585,365.501" style="fill:none;stroke:#3f5d69;stroke-width:1.17px;"/><path d="M1181.19,477.003l-237.371,192.764l-182.978,10.242l-137.689,-124.944l-24.352,-190.489" style="fill:none;stroke:#3f5d69;stroke-width:1.17px;"/><g><circle cx="1181.19" cy="477.003" r="9.331" style="fill:#4f5764;"/><circle cx="943.824" cy="669.767" r="9.331" style="fill:#4f5764;"/><circle cx="760.846" cy="680.009" r="10.469" style="fill:#4f5764;"/><circle cx="598.805" cy="364.576" r="9.331" style="fill:#4f5764;"/><circle cx="623.157" cy="555.065" r="7.738" style="fill:#4f5764;"/><circle cx="1143.87" cy="328.618" r="8.876" style="fill:#4f5764;"/><circle cx="784.742" cy="189.564" r="10.924" style="fill:#4f5764;"/><circle cx="974.32" cy="171.812" r="12.29" style="fill:#4f5764;"/></g></g></g><g><g opacity="0.372929"><path d="M695.529,451.514l0,-25.262l121.985,-54.393l0,25.717l-96.951,41.648l96.951,40.965l0,25.717l-121.985,-54.392Z" style="fill:url(#_Linear2);fill-rule:nonzero;"/><path d="M835.493,554.154l75.331,-230.998l25.262,0l-75.331,230.998l-25.262,0Z" style="fill:url(#_Linear3);fill-rule:nonzero;"/><path d="M956.113,505.906l0,-25.717l96.951,-40.965l-96.951,-41.648l0,-25.717l121.986,54.393l0,25.262l-121.986,54.392Z" style="fill:url(#_Linear4);fill-rule:nonzero;"/></g></g></g></g></g><defs><linearGradient id="_Linear2" x1="0" y1="0" x2="1" y2="0" gradientUnits="userSpaceOnUse" gradientTransform="matrix(121.939,0,0,121.939,695.434,438.851)"><stop offset="0%" style="stop-color:#4f5764;stop-opacity:1"/><stop offset="66%" style="stop-color:#293942;stop-opacity:1"/><stop offset="100%" style="stop-color:#111c21;stop-opacity:1"/></linearGradient><linearGradient id="_Linear3" x1="0" y1="0" x2="1" y2="0" gradientUnits="userSpaceOnUse" gradientTransform="matrix(100.526,0,0,100.526,835.521,438.541)"><stop offset="0%" style="stop-color:#3d96d2;stop-opacity:1"/><stop offset="100%" style="stop-color:#069fb0;stop-opacity:1"/></linearGradient><linearGradient id="_Linear4" x1="0" y1="0" x2="1" y2="0" gradientUnits="userSpaceOnUse" gradientTransform="matrix(121.939,0,0,121.939,956.027,438.851)"><stop offset="0%" style="stop-color:#4f5764;stop-opacity:1"/><stop offset="66%" style="stop-color:#293942;stop-opacity:1"/><stop offset="100%" style="stop-color:#111c21;stop-opacity:1"/></linearGradient></defs></svg>